<svg xmlns="http://www.w3.org/2000/svg" viewBox="0 0 1080 1080" width="1080" height="1080">
  <defs>
    <linearGradient id="bg" x1="0" y1="0" x2="1" y2="1">
      <stop offset="0%" stop-color="#1a1a2e"/>
      <stop offset="100%" stop-color="#0a1a14"/>
    </linearGradient>
    <radialGradient id="glow" cx="0.5" cy="0.4">
      <stop offset="0%" stop-color="#25D366" stop-opacity="0.2"/>
      <stop offset="100%" stop-color="#25D366" stop-opacity="0"/>
    </radialGradient>
  </defs>
  <rect width="1080" height="1080" fill="url(#bg)"/>
  <circle cx="540" cy="400" r="450" fill="url(#glow)"/>

  <g transform="translate(440, 200)">
    <circle cx="100" cy="100" r="100" fill="#25D36620" stroke="#25D366" stroke-width="3"/>
    <g transform="translate(35, 35)">
      <path d="M65 5C32 5 5 32 5 65c0 11.6 3.1 22.5 8.5 31.9L5 125l29.4-8.3c8.9 4.8 19.1 7.6 30 7.6 33 0 60-27 60-60S98 5 65 5z" fill="#25D366"/>
      <path d="M95 80c-1.5 1-7.5 4.5-9 5s-2.4.5-3.5-1c-1-1.5-4-5-5-6.5-1-1.5-1-2.5 0-3.5l3-3c1-1 1.5-1.5 2-2.5.5-1.5 0-2.5-.5-3.5-.5-1-4-9.5-5.5-13s-3-3-4-3h-3.5c-1 0-2.5.5-3.5 1.5C63.5 53 61 56 61 63.5s5.5 14.5 6 15.5c.5 1 10 16 24 22.5 5 2 8.5 3 11.5 4 4.5 1.5 9 1 12.5.5 4-.5 7.5-3 8.5-6 1-3 1-5.5.5-6-.5-.5-1.5-1-3-1.5z" fill="#fff"/>
    </g>
  </g>

  <text x="540" y="500" text-anchor="middle" font-family="Arial, sans-serif" font-weight="800" font-size="30" fill="#25D366" letter-spacing="6">COBRANÇA SEM ATRITO</text>

  <text x="540" y="600" text-anchor="middle" font-family="'Arial Black', Arial, sans-serif" font-weight="900" font-size="68" fill="#fff">WhatsApp em 1 clique</text>

  <text x="540" y="680" text-anchor="middle" font-family="Arial, sans-serif" font-weight="700" font-size="38" fill="#aaa">3 tons de mensagem prontos:</text>

  <g transform="translate(80, 760)">
    <rect width="300" height="100" rx="14" fill="#ffffff08" stroke="#25D36640" stroke-width="2"/>
    <text x="150" y="50" text-anchor="middle" font-family="Arial, sans-serif" font-weight="800" font-size="26" fill="#fff">😊 Amigável</text>
    <text x="150" y="80" text-anchor="middle" font-family="Arial, sans-serif" font-weight="500" font-size="16" fill="#999">Antes do vencimento</text>
  </g>

  <g transform="translate(390, 760)">
    <rect width="300" height="100" rx="14" fill="#ffffff08" stroke="#25D36640" stroke-width="2"/>
    <text x="150" y="50" text-anchor="middle" font-family="Arial, sans-serif" font-weight="800" font-size="26" fill="#fff">💼 Objetivo</text>
    <text x="150" y="80" text-anchor="middle" font-family="Arial, sans-serif" font-weight="500" font-size="16" fill="#999">Oferece Pix</text>
  </g>

  <g transform="translate(700, 760)">
    <rect width="300" height="100" rx="14" fill="#ffffff08" stroke="#25D36640" stroke-width="2"/>
    <text x="150" y="50" text-anchor="middle" font-family="Arial, sans-serif" font-weight="800" font-size="26" fill="#fff">⚠️ Atrasado</text>
    <text x="150" y="80" text-anchor="middle" font-family="Arial, sans-serif" font-weight="500" font-size="16" fill="#999">Após vencimento</text>
  </g>

  <text x="540" y="940" text-anchor="middle" font-family="Arial, sans-serif" font-weight="700" font-size="28" fill="#aaa">Nome e valor preenchidos automaticamente.</text>
</svg>
